<svg id="Layer_1" data-name="Layer 1" xmlns="http://www.w3.org/2000/svg" viewBox="0 0 622.29 159.24"><defs><style>.cls-1{font-size:122.86px;letter-spacing:0.2em;}.cls-1,.cls-6,.cls-8,.cls-9{fill:#231f20;}.cls-1,.cls-9{font-family:AvenirNext-UltraLight, Avenir Next;font-weight:100;}.cls-2{letter-spacing:0.14em;}.cls-3{letter-spacing:0.16em;}.cls-4{fill:#fff;}.cls-5{font-size:17.5px;fill:#ed1c24;font-family:Avenir-MediumOblique, Avenir;font-weight:500;font-style:oblique;letter-spacing:0.09em;}.cls-6,.cls-7{letter-spacing:0.09em;}.cls-9{font-size:100px;letter-spacing:0.18em;}.cls-10{fill:#010101;}</style></defs><text class="cls-1" transform="translate(0 105.09)">GEL<tspan class="cls-2" x="305.06" y="0">A</tspan><tspan class="cls-3" x="404.09" y="0">T</tspan><tspan class="cls-4" x="490.58" y="0">O</tspan></text><text class="cls-5" transform="translate(8.84 133.31)">G<tspan class="cls-6" x="15.19" y="0">alaxy/AGN </tspan><tspan x="122.67" y="0">E</tspan><tspan class="cls-6" x="134.94" y="0">mission </tspan><tspan class="cls-7" x="211.38" y="0">L</tspan><tspan class="cls-8" x="222.03" y="0">ine </tspan><tspan class="cls-7" x="256.86" y="0">A</tspan><tspan class="cls-6" x="270.75" y="0">nalysis </tspan><tspan x="339.72" y="0">TO</tspan><tspan class="cls-8" x="367.47" y="0">ol by Raphael Hviding </tspan></text><text class="cls-9" transform="translate(585.87 36.8) rotate(180) scale(1.23 1)">A</text><path class="cls-4" d="M611.76,69C595,69,581.32,54.85,581.32,37.46S595,5.91,611.76,5.91s30.45,14.15,30.45,31.55S628.55,69,611.76,69Z" transform="translate(-67.06 3)"/><path class="cls-8" d="M611.76,6.91c16.24,0,29.45,13.71,29.45,30.55S628,68,611.76,68s-29.44-13.7-29.44-30.54S595.53,6.91,611.76,6.91m0-2c-17.36,0-31.44,14.57-31.44,32.55S594.4,70,611.76,70s31.45-14.57,31.45-32.54S629.13,4.91,611.76,4.91Z" transform="translate(-67.06 3)"/><path class="cls-10" d="M597.18,39.37C597.18,32.53,602.67,26,610,26c5.86,0,10.59,4,10.59,10.07,0,3.61-2.82,7.64-7.12,7.64-3.82,0-5.9-2.43-5.9-5.39-.63,0-1,1-1,2.09,0,2.88,3.43,5.9,7.46,5.9,5.28,0,10.76-4.83,10.76-12a16.89,16.89,0,0,0-4-10.41,15.05,15.05,0,0,1,5.55,11.63c0,6.84-5.48,13.36-12.84,13.36-5.87,0-10.59-4-10.59-10.06,0-3.62,2.81-7.64,7.12-7.64,3.82,0,5.9,2.43,5.9,5.38.62,0,1-1,1-2.08,0-2.89-3.44-5.91-7.46-5.91-5.28,0-10.77,4.83-10.77,12a16.93,16.93,0,0,0,4,10.42A15.07,15.07,0,0,1,597.18,39.37Z" transform="translate(-67.06 3)"/><polygon class="cls-4" points="544.22 37.6 544.7 39.49 546.59 39.97 544.7 40.46 544.22 42.35 543.73 40.46 541.84 39.97 543.73 39.49 544.22 37.6"/></svg>