<?xml version="1.0" encoding="utf-8"?>
<!-- Generator: Adobe Illustrator 27.7.0, SVG Export Plug-In . SVG Version: 6.00 Build 0)  -->
<svg version="1.1" id="Layer_1" xmlns="http://www.w3.org/2000/svg" xmlns:xlink="http://www.w3.org/1999/xlink" x="0px" y="0px"
	 viewBox="0 0 645.18 144" style="enable-background:new 0 0 645.18 144;" xml:space="preserve">
<style type="text/css">
	.st0{font-family:'AvenirNext-UltraLight';}
	.st1{font-size:122.8615px;}
	.st2{letter-spacing:24;}
	.st3{fill:#ED1C24;}
	.st4{font-family:'Avenir-MediumOblique';}
	.st5{font-size:17.4998px;}
	.st6{letter-spacing:1;}
	.st7{font-size:99.999px;}
	.st8{letter-spacing:19.53;}
	.st9{fill:#FFFFFF;}
	.st10{fill:#010101;}
</style>
<text transform="matrix(1 0 0 1 28.9412 102.0952)" class="st0 st1 st2">GELAT</text>
<text transform="matrix(1 0 0 1 37.7857 130.3076)"><tspan x="0" y="0" class="st3 st4 st5 st6">G</tspan><tspan x="15.19" y="0" class="st4 st5 st6">alaxy/AGN </tspan><tspan x="122.67" y="0" class="st3 st4 st5 st6">E</tspan><tspan x="134.94" y="0" class="st4 st5 st6">mission-</tspan><tspan x="212.04" y="0" class="st3 st4 st5 st6">L</tspan><tspan x="222.7" y="0" class="st4 st5 st6">ine </tspan><tspan x="257.52" y="0" class="st3 st4 st5 st6">A</tspan><tspan x="271.42" y="0" class="st4 st5 st6">nalysis </tspan><tspan x="340.38" y="0" class="st3 st4 st5 st6">TO</tspan><tspan x="368.14" y="0" class="st4 st5 st6">ol by Raphael Hviding </tspan></text>
<text transform="matrix(-1.2286 0 0 -1 614.8116 33.7998)" class="st0 st7 st8">A</text>
<g>
	<path class="st9" d="M573.64,69c-16.79,0-30.44-14.15-30.44-31.54s13.66-31.54,30.44-31.54s30.44,14.15,30.44,31.54
		S590.43,69,573.64,69z"/>
	<path d="M573.64,6.91c16.23,0,29.44,13.7,29.44,30.54S589.87,68,573.64,68S544.2,54.3,544.2,37.46S557.41,6.91,573.64,6.91
		 M573.64,4.91c-17.37,0-31.44,14.57-31.44,32.54S556.27,70,573.64,70s31.44-14.57,31.44-32.54S591,4.91,573.64,4.91L573.64,4.91z"
		/>
</g>
<path class="st10" d="M559.06,39.37c0-6.84,5.49-13.37,12.85-13.37c5.87,0,10.59,4.03,10.59,10.07c0,3.61-2.81,7.64-7.12,7.64
	c-3.82,0-5.9-2.43-5.9-5.38c-0.62,0-1.04,1.04-1.04,2.08c0,2.88,3.44,5.9,7.46,5.9c5.28,0,10.76-4.83,10.76-11.98
	c0-4.44-2.15-8.16-3.99-10.42c2.26,1.91,5.55,5.69,5.55,11.63c0,6.84-5.49,13.37-12.85,13.37c-5.87,0-10.59-4.03-10.59-10.07
	c0-3.61,2.81-7.64,7.12-7.64c3.82,0,5.9,2.43,5.9,5.38c0.62,0,1.04-1.04,1.04-2.08c0-2.88-3.44-5.9-7.46-5.9
	c-5.28,0-10.76,4.83-10.76,11.98c0,4.44,2.15,8.16,3.99,10.42C562.36,49.09,559.06,45.3,559.06,39.37z"/>
<polygon class="st9" points="573.16,34.6 573.64,36.49 575.53,36.97 573.64,37.46 573.16,39.35 572.68,37.46 570.78,36.97 
	572.68,36.49 "/>
</svg>
