<svg id="Layer_1" data-name="Layer 1" xmlns="http://www.w3.org/2000/svg" viewBox="0 0 588.9 159.24"><defs><style>.cls-1{font-size:122.86px;letter-spacing:0.2em;}.cls-1,.cls-5,.cls-7,.cls-8{fill:#231f20;}.cls-1,.cls-8{font-family:AvenirNext-UltraLight, Avenir Next;font-weight:100;}.cls-2{letter-spacing:0.14em;}.cls-3{letter-spacing:0.18em;}.cls-4{font-size:17.5px;fill:#ed1c24;font-family:Avenir-MediumOblique, Avenir;font-weight:500;font-style:oblique;letter-spacing:0.09em;}.cls-5,.cls-6{letter-spacing:0.09em;}.cls-8{font-size:100px;letter-spacing:0.18em;}.cls-9{fill:#fff;}.cls-10{fill:#010101;}</style></defs><text class="cls-1" transform="translate(0 105.09)">GEL<tspan class="cls-2" x="305.06" y="0">A</tspan><tspan class="cls-3" x="404.09" y="0">T</tspan></text><text class="cls-4" transform="translate(8.84 133.31)">G<tspan class="cls-5" x="15.19" y="0">alaxy/AGN </tspan><tspan x="122.67" y="0">E</tspan><tspan class="cls-5" x="134.94" y="0">mission </tspan><tspan class="cls-6" x="211.38" y="0">L</tspan><tspan class="cls-7" x="222.03" y="0">ine </tspan><tspan class="cls-6" x="256.86" y="0">A</tspan><tspan class="cls-5" x="270.75" y="0">nalysis </tspan><tspan x="339.72" y="0">TO</tspan><tspan class="cls-7" x="367.47" y="0">ol by Raphael Hviding </tspan></text><text class="cls-8" transform="translate(585.87 36.8) rotate(180) scale(1.23 1)">A</text><path class="cls-9" d="M573.64,69c-16.79,0-30.44-14.15-30.44-31.54S556.85,5.91,573.64,5.91s30.44,14.15,30.44,31.55S590.43,69,573.64,69Z" transform="translate(-28.94 3)"/><path class="cls-7" d="M573.64,6.91c16.23,0,29.44,13.71,29.44,30.55S589.87,68,573.64,68,544.2,54.3,544.2,37.46,557.41,6.91,573.64,6.91m0-2c-17.37,0-31.44,14.57-31.44,32.55S556.27,70,573.64,70s31.44-14.57,31.44-32.54S591,4.91,573.64,4.91Z" transform="translate(-28.94 3)"/><path class="cls-10" d="M559.06,39.37c0-6.84,5.48-13.37,12.84-13.37,5.87,0,10.59,4,10.59,10.07,0,3.61-2.81,7.64-7.11,7.64-3.82,0-5.91-2.43-5.91-5.39-.62,0-1,1-1,2.09,0,2.88,3.44,5.9,7.47,5.9,5.27,0,10.76-4.83,10.76-12a16.89,16.89,0,0,0-4-10.41,15.08,15.08,0,0,1,5.55,11.63c0,6.84-5.48,13.36-12.84,13.36-5.87,0-10.59-4-10.59-10.06,0-3.62,2.81-7.64,7.11-7.64,3.82,0,5.91,2.43,5.91,5.38.62,0,1-1,1-2.08,0-2.89-3.44-5.91-7.47-5.91-5.27,0-10.76,4.83-10.76,12a16.92,16.92,0,0,0,4,10.42A15.1,15.1,0,0,1,559.06,39.37Z" transform="translate(-28.94 3)"/><polygon class="cls-9" points="544.22 37.6 544.7 39.49 546.59 39.97 544.7 40.46 544.22 42.35 543.73 40.46 541.84 39.97 543.73 39.49 544.22 37.6"/></svg>